<svg width="40" height="40" viewBox="0 0 40 40" fill="none" xmlns="http://www.w3.org/2000/svg">
<path d="M8.83341 20.0007C7.50008 18.6673 6.66675 16.834 6.66675 15.0007C6.66675 11.334 9.66675 8.33398 13.3334 8.33398C17.0001 8.33398 20.0001 11.334 20.0001 15.0007H16.6667C16.6667 13.1673 15.1667 11.6673 13.3334 11.6673C11.5001 11.6673 10.0001 13.1673 10.0001 15.0007C10.0001 16.0007 10.3334 16.834 11.1667 17.5007L8.83341 20.0007Z" />
<path d="M11.6666 5H14.9999V10H11.6666V5ZM3.33325 13.3333H8.33325V16.6667H3.33325V13.3333Z" />
<path d="M5.04126 9.10742L7.39824 6.75036L10.9338 10.2858L8.57686 12.6429L5.04126 9.10742Z" />
<path d="M15.6902 10.2441L19.2257 6.70855L21.5827 9.06553L18.0472 12.6011L15.6902 10.2441Z" />
<path d="M33.3333 34.9994H6.66659C4.83325 34.9994 3.33325 33.4994 3.33325 31.666V20.666L4.16659 20.166C4.66659 19.8327 17.9999 11.666 34.9999 11.666H36.6666V31.666C36.6666 33.4994 35.1666 34.9994 33.3333 34.9994ZM6.66659 22.666V31.666H33.3333V14.9993C20.3333 15.4993 9.66659 20.9994 6.66659 22.666Z" />
<path d="M7.83333 32.8327L5.5 30.4993C5.83333 29.9993 16 19.9993 34.6667 16.666L35.3333 19.9993C17.6667 23.166 8 32.8327 7.83333 32.8327ZM21.1667 34.4993L18.8333 32.166C19 31.9993 24.1667 26.9993 34.3333 21.8327L35.8333 24.8327C26.1667 29.666 21.1667 34.4993 21.1667 34.4993Z" />
</svg>
