<svg width="40" height="40" viewBox="0 0 40 40" fill="none" xmlns="http://www.w3.org/2000/svg">
<path d="M19.9999 7.5C12.1759 7.5 5.83325 13.8426 5.83325 21.6667C5.83325 25.5746 7.41393 29.1109 9.97379 31.6752C10.4615 32.1638 10.4608 32.9553 9.97225 33.443C9.48367 33.9307 8.69222 33.93 8.20449 33.4414C5.19584 30.4276 3.33325 26.2634 3.33325 21.6667C3.33325 12.4619 10.7952 5 19.9999 5C29.2047 5 36.6666 12.4619 36.6666 21.6667C36.6666 23.7186 36.2954 25.6843 35.6169 27.5H34.2505C34.3523 27.4056 34.4509 27.308 34.5461 27.2071C35.6018 26.0892 36.2515 24.577 36.2515 22.9167C36.2515 21.2557 35.6014 19.7431 34.545 18.6251C34.2708 18.3348 33.9686 18.0706 33.6428 17.8367C31.9722 11.8733 26.4968 7.5 19.9999 7.5ZM23.7504 22.9167C23.7504 22.2039 23.8703 21.5168 24.0917 20.8759C23.7222 18.9529 22.0307 17.5 19.9999 17.5C17.6987 17.5 15.8333 19.3655 15.8333 21.6667C15.8333 23.9679 17.6987 25.8333 19.9999 25.8333C21.6674 25.8333 23.106 24.8539 23.772 23.4389C23.7577 23.2663 23.7504 23.0922 23.7504 22.9167ZM18.3333 21.6667C18.3333 20.7462 19.0794 20 19.9999 20C20.9204 20 21.6666 20.7462 21.6666 21.6667C21.6666 22.5871 20.9204 23.3333 19.9999 23.3333C19.0794 23.3333 18.3333 22.5871 18.3333 21.6667ZM27.136 17.3606C27.8873 16.9724 28.7277 16.7319 29.6189 16.6782C27.8142 13.2054 24.1841 10.8333 19.9999 10.8333C14.0168 10.8333 9.16658 15.6836 9.16658 21.6667C9.16658 24.6597 10.382 27.3713 12.3433 29.3307C12.8317 29.8186 13.6231 29.8182 14.111 29.3298C14.599 28.8414 14.5986 28.05 14.1102 27.5621C12.5991 26.0524 11.6666 23.9696 11.6666 21.6667C11.6666 17.0643 15.3975 13.3333 19.9999 13.3333C23.0265 13.3333 25.6763 14.9468 27.136 17.3606ZM33.3336 19.7697C32.6787 19.0766 31.8099 18.5877 30.8327 18.4086C30.563 18.3592 30.285 18.3333 30.001 18.3333C28.2196 18.3333 26.6756 19.3493 25.9169 20.8333C25.5973 21.4584 25.4171 22.1665 25.4171 22.9167C25.4171 23.0571 25.4234 23.1961 25.4357 23.3333C25.6463 25.6694 27.6098 27.5 30.001 27.5C30.2852 27.5 30.5635 27.4741 30.8335 27.4246C31.8107 27.2453 32.6796 26.7562 33.3344 26.0628C34.1096 25.2419 34.5849 24.1348 34.5849 22.9167C34.5849 21.6981 34.1093 20.5907 33.3336 19.7697ZM24.1669 29.1667L24.1429 29.1668C24.0783 29.1674 24.0144 29.1704 23.9511 29.1758C22.6712 29.2852 21.6666 30.3586 21.6666 31.6667V32.5C21.6666 33.3492 21.8736 34.2048 22.2711 35.0067C22.7367 35.9462 23.4636 36.812 24.4251 37.5076C25.8183 38.5158 27.7041 39.1667 30.001 39.1667C35.2358 39.1667 38.3353 35.7857 38.3353 32.5V31.6667C38.3353 30.286 37.2159 29.1667 35.835 29.1667H24.1669Z" />
</svg>
