<svg width="40" height="40" viewBox="0 0 40 40" fill="none" xmlns="http://www.w3.org/2000/svg">
<path d="M21.6666 20.8357C23.4229 20.8357 24.8634 22.1948 24.9908 23.9201L24.9999 24.169V25.0007H22.4999V24.169C22.4999 23.7601 22.2036 23.4197 21.8159 23.3491L21.6666 23.3357L6.66659 23.334L6.49883 23.3507C6.29152 23.3928 6.14992 23.5053 6.07659 23.5773C6.00459 23.6507 5.89205 23.7912 5.84992 23.9989L5.83325 24.1673V27.5007C5.83325 29.1823 6.58325 30.3707 8.19492 31.2373C9.57184 31.9789 11.5324 32.4279 13.6375 32.4925L14.1666 32.5007L14.6956 32.4925C15.9983 32.4525 17.2453 32.2653 18.3333 31.9526V34.5365C16.9378 34.8652 15.4892 35.0007 14.1666 35.0007C9.6297 35.0007 3.60774 33.4072 3.34234 27.8834L3.33325 27.5007V24.1673C3.33325 22.411 4.69391 20.9705 6.41793 20.8431L6.66659 20.834L21.6666 20.8357ZM35.8333 25.0007C36.1186 25.0007 36.3973 25.0293 36.6666 25.084V24.169L36.6574 23.9203C36.5301 22.1963 35.0896 20.8357 33.3333 20.8357H25.3666L25.5907 21.102C26.0923 21.741 26.4416 22.5 26.5816 23.3357H33.3333L33.4825 23.3491C33.8703 23.4197 34.1666 23.7601 34.1666 24.169V25.0007H35.8333ZM14.1666 3.33398C18.3083 3.33398 21.6666 6.69232 21.6666 10.834C21.6666 14.9756 18.3083 18.334 14.1666 18.334C10.0249 18.334 6.66659 14.9756 6.66659 10.834C6.66659 6.69232 10.0249 3.33398 14.1666 3.33398ZM14.1666 5.83398C11.4099 5.83398 9.16658 8.07732 9.16658 10.834C9.16658 13.5907 11.4099 15.834 14.1666 15.834C16.9233 15.834 19.1666 13.5907 19.1666 10.834C19.1666 8.07732 16.9233 5.83398 14.1666 5.83398ZM29.1666 6.66732C32.3883 6.66732 34.9999 9.27898 34.9999 12.5007C34.9999 15.7223 32.3883 18.334 29.1666 18.334C25.9449 18.334 23.3333 15.7223 23.3333 12.5007C23.3333 9.27898 25.9449 6.66732 29.1666 6.66732ZM29.1666 9.16732C27.3283 9.16732 25.8333 10.6623 25.8333 12.5007C25.8333 14.339 27.3283 15.834 29.1666 15.834C31.0049 15.834 32.4999 14.339 32.4999 12.5007C32.4999 10.6623 31.0049 9.16732 29.1666 9.16732ZM19.9999 29.1673C19.9999 27.7866 21.1192 26.6673 22.4999 26.6673H35.8333C37.214 26.6673 38.3333 27.7866 38.3333 29.1673V35.834C38.3333 37.2147 37.214 38.334 35.8333 38.334H22.4999C21.1192 38.334 19.9999 37.2147 19.9999 35.834V29.1673ZM36.6666 30.0007C35.7461 30.0007 34.9999 29.2545 34.9999 28.334H33.3333C33.3333 30.1749 34.8256 31.6673 36.6666 31.6673V30.0007ZM36.6666 33.334C34.8256 33.334 33.3333 34.8264 33.3333 36.6673H34.9999C34.9999 35.7468 35.7461 35.0007 36.6666 35.0007V33.334ZM23.3333 28.334C23.3333 29.2545 22.5871 30.0007 21.6666 30.0007V31.6673C23.5075 31.6673 24.9999 30.1749 24.9999 28.334H23.3333ZM24.9999 36.6673C24.9999 34.8264 23.5075 33.334 21.6666 33.334V35.0007C22.5871 35.0007 23.3333 35.7468 23.3333 36.6673H24.9999ZM32.0833 32.5007C32.0833 30.8898 30.7774 29.584 29.1666 29.584C27.5558 29.584 26.2499 30.8898 26.2499 32.5007C26.2499 34.1115 27.5558 35.4173 29.1666 35.4173C30.7774 35.4173 32.0833 34.1115 32.0833 32.5007Z" />
</svg>
