<svg width="40" height="40" viewBox="0 0 40 40" fill="none" xmlns="http://www.w3.org/2000/svg">
<path d="M24.59 16.6667C25.9112 16.6667 27.0273 17.5452 27.3858 18.75H26.2499C25.5674 18.75 24.9198 18.8992 24.3378 19.1667H15.4198C15.1897 19.1667 15.0031 19.3532 15.0031 19.5833V27.4983C15.0031 29.6744 16.3929 31.526 18.3333 32.2138V34.8131C14.9948 34.0533 12.5031 31.0668 12.5031 27.4983V19.5833C12.5031 17.9725 13.809 16.6667 15.4198 16.6667H24.59ZM32.0833 18.75C34.608 18.75 36.656 20.7914 36.6666 23.3137V19.5833C36.6666 17.9725 35.3607 16.6667 33.7499 16.6667L28.1244 16.6651C28.6114 17.2543 28.954 17.9674 29.0977 18.75H32.0833ZM6.24992 16.6667L11.8854 16.6651C11.3131 17.3574 10.9403 18.2208 10.8551 19.167L6.24992 19.1667C6.0198 19.1667 5.83325 19.3532 5.83325 19.5833V24.9979C5.83325 27.3003 7.69966 29.1667 10.002 29.1667C10.3353 29.1667 10.6595 29.1275 10.9702 29.0536C11.1114 29.8935 11.3692 30.6946 11.7247 31.44C11.1762 31.5884 10.5982 31.6667 10.002 31.6667C6.31895 31.6667 3.33325 28.681 3.33325 24.9979V19.5833C3.33325 17.9725 4.63909 16.6667 6.24992 16.6667ZM19.9999 5C22.7613 5 24.9999 7.23858 24.9999 10C24.9999 12.7614 22.7613 15 19.9999 15C17.2385 15 14.9999 12.7614 14.9999 10C14.9999 7.23858 17.2385 5 19.9999 5ZM19.9999 7.5C18.6192 7.5 17.4999 8.61929 17.4999 10C17.4999 11.3807 18.6192 12.5 19.9999 12.5C21.3806 12.5 22.4999 11.3807 22.4999 10C22.4999 8.61929 21.3806 7.5 19.9999 7.5ZM30.8333 6.66667C33.1344 6.66667 34.9999 8.53215 34.9999 10.8333C34.9999 13.1345 33.1344 15 30.8333 15C28.5321 15 26.6666 13.1345 26.6666 10.8333C26.6666 8.53215 28.5321 6.66667 30.8333 6.66667ZM30.8333 9.16667C29.9128 9.16667 29.1666 9.91286 29.1666 10.8333C29.1666 11.7538 29.9128 12.5 30.8333 12.5C31.7537 12.5 32.4999 11.7538 32.4999 10.8333C32.4999 9.91286 31.7537 9.16667 30.8333 9.16667ZM9.16658 6.66667C11.4678 6.66667 13.3333 8.53215 13.3333 10.8333C13.3333 13.1345 11.4678 15 9.16658 15C6.8654 15 4.99992 13.1345 4.99992 10.8333C4.99992 8.53215 6.8654 6.66667 9.16658 6.66667ZM9.16658 9.16667C8.24611 9.16667 7.49992 9.91286 7.49992 10.8333C7.49992 11.7538 8.24611 12.5 9.16658 12.5C10.0871 12.5 10.8333 11.7538 10.8333 10.8333C10.8333 9.91286 10.0871 9.16667 9.16658 9.16667ZM23.3333 25H22.4999C21.1192 25 19.9999 26.1193 19.9999 27.5V30H24.1666V29.5833C24.1666 28.893 24.7262 28.3333 25.4166 28.3333C26.1069 28.3333 26.6666 28.893 26.6666 29.5833V30H31.6666V29.5833C31.6666 28.893 32.2262 28.3333 32.9166 28.3333C33.6069 28.3333 34.1666 28.893 34.1666 29.5833V30H38.3333V27.5C38.3333 26.1193 37.214 25 35.8333 25H35V23.3333C35 21.7225 33.6941 20.4167 32.0833 20.4167H26.2499C24.6391 20.4167 23.3333 21.7225 23.3333 23.3333V25ZM25.8333 23.3333C25.8333 23.1032 26.0198 22.9167 26.2499 22.9167H32.0833C32.3134 22.9167 32.5 23.1032 32.5 23.3333V25H25.8333V23.3333ZM19.9999 35.8333V32.5H24.1666V33.75C24.1666 34.4404 24.7262 35 25.4166 35C26.1069 35 26.6666 34.4404 26.6666 33.75V32.5H31.6666V33.75C31.6666 34.4404 32.2262 35 32.9166 35C33.6069 35 34.1666 34.4404 34.1666 33.75V32.5H38.3333V35.8333C38.3333 37.214 37.214 38.3333 35.8333 38.3333H22.4999C21.1192 38.3333 19.9999 37.214 19.9999 35.8333Z" />
</svg>
