<svg width="40" height="40" viewBox="0 0 40 40" fill="none" xmlns="http://www.w3.org/2000/svg">
<path d="M17.5825 4.21917C18.979 3.04152 21.021 3.04153 22.4175 4.21918L33.6675 13.706C34.5124 14.4185 35 15.4675 35 16.5728V21.2721C34.3115 20.6559 33.4513 20.2277 32.5 20.0681V16.5728C32.5 16.2044 32.3375 15.8547 32.0558 15.6172L20.8058 6.13035C20.3403 5.7378 19.6597 5.7378 19.1942 6.13035L7.94418 15.6172C7.66253 15.8547 7.5 16.2044 7.5 16.5728V32.9107C7.5 33.1409 7.68655 33.3274 7.91667 33.3274H13.75C13.9801 33.3274 14.1667 33.1409 14.1667 32.9107V23.7441C14.1667 22.1332 15.4725 20.8274 17.0833 20.8274H22.9167C24.5275 20.8274 25.8333 22.1332 25.8333 23.7441V28.5457C24.3768 29.0605 23.3333 30.4495 23.3333 32.0823L23.3333 23.7441C23.3333 23.514 23.1468 23.3274 22.9167 23.3274H17.0833C16.8532 23.3274 16.6667 23.514 16.6667 23.7441V32.9107C16.6667 34.5216 15.3608 35.8274 13.75 35.8274H7.91667C6.30584 35.8274 5 34.5216 5 32.9107V16.5728C5 15.4675 5.48758 14.4185 6.33253 13.706L17.5825 4.21917Z" />
<path d="M31.6667 21.6656C29.8257 21.6656 28.3333 23.158 28.3333 24.9989C28.3333 26.8399 29.8257 28.3323 31.6667 28.3323C33.5076 28.3323 35 26.8399 35 24.9989C35 23.158 33.5076 21.6656 31.6667 21.6656Z" />
<path d="M25 32.0823C25 30.9317 25.9327 29.9989 27.0833 29.9989H36.25C37.4006 29.9989 38.3333 30.9317 38.3333 32.0823C38.3333 32.1311 38.3338 32.1799 38.3343 32.2288C38.3354 32.3473 38.3365 32.4663 38.331 32.5846C38.3289 32.6288 38.3251 32.6883 38.3178 32.7609C38.3033 32.9057 38.2752 33.1045 38.2204 33.3393C38.1112 33.8074 37.8927 34.4327 37.4535 35.0602C36.5437 36.3599 34.8091 37.4989 31.6667 37.4989C28.5242 37.4989 26.7896 36.3599 25.8798 35.0602C25.4406 34.4327 25.2222 33.8074 25.1129 33.3393C25.0581 33.1045 25.03 32.9057 25.0155 32.7609C25.0083 32.6883 25.0044 32.6288 25.0023 32.5846C25 32.3657 25 32.2422 25 32.087V32.0823Z" />
</svg>
