<svg xmlns="http://www.w3.org/2000/svg" width="24" height="24" fill="none" viewBox="0 0 24 24">
    <path d="M3 13h4v6H3v-6zm7-8h4v14h-4V5zm7 4h4v10h-4V9z" opacity=".3"/>
    <path d="M14 4h-4c-.552 0-1 .448-1 1v14c0 .552.448 1 1 1h4c.552 0 1-.448 1-1V5c0-.552-.448-1-1-1zm-1 14h-2V6h2v12zm8-10h-4c-.552 0-1 .448-1 1v10c0 .552.448 1 1 1h4c.552 0 1-.448 1-1V9c0-.552-.448-1-1-1zm-1 10h-2v-8h2v8zM7 12H3c-.552 0-1 .448-1 1v6c0 .552.448 1 1 1h4c.552 0 1-.448 1-1v-6c0-.552-.448-1-1-1zm-1 6H4v-4h2v4z"/>
</svg>
