<svg width="36" height="33" viewBox="0 0 36 33" fill="none" xmlns="http://www.w3.org/2000/svg">
<path d="M3.2684 3.44714C5.20184 1.51335 7.79507 0.382286 10.5277 0.280894C13.2604 0.179501 15.9303 1.11528 18.0017 2.90048C20.0713 1.11826 22.7377 0.183527 25.4671 0.283412C28.1965 0.383298 30.7874 1.51043 32.7212 3.43915C34.655 5.36788 35.7889 7.95585 35.8959 10.685C36.0029 13.4141 35.0752 16.0829 33.2984 18.1571L20.3567 31.1405C19.7621 31.7353 18.9647 32.0833 18.1243 32.1148C17.2838 32.1464 16.4626 31.859 15.8251 31.3105L15.6417 31.1421L2.70174 18.1571C0.925886 16.0847 -0.00229618 13.4183 0.102763 10.6911C0.207822 7.9639 1.33838 5.37683 3.2684 3.44714V3.44714ZM5.62507 5.80381C4.26214 7.16712 3.47649 9.00288 3.43118 10.9301C3.38587 12.8573 4.08438 14.728 5.38174 16.1538L5.62507 16.4105L18.0001 28.7855L26.8384 19.9455L20.9467 14.0538L19.1801 15.8205C18.7158 16.2849 18.1647 16.6534 17.5581 16.9048C16.9515 17.1563 16.3012 17.2857 15.6446 17.2859C14.3184 17.2862 13.0464 16.7597 12.1084 15.8221C11.1704 14.8846 10.6433 13.6128 10.643 12.2867C10.6427 10.9605 11.1692 9.68846 12.1067 8.75048L15.6101 5.24548C14.2159 4.13277 12.4708 3.55329 10.6879 3.61102C8.90501 3.66875 7.20105 4.3599 5.88174 5.56048L5.62507 5.80381V5.80381ZM19.7684 10.5171C20.081 10.2047 20.5048 10.0292 20.9467 10.0292C21.3887 10.0292 21.8125 10.2047 22.1251 10.5171L29.1951 17.5871L30.3751 16.4105C31.7608 15.0257 32.5498 13.1537 32.5731 11.1947C32.5965 9.23582 31.8524 7.3455 30.5001 5.92807C29.1478 4.51063 27.2945 3.67859 25.3366 3.6099C23.3788 3.5412 21.4718 4.2413 20.0234 5.56048L19.7684 5.80381L14.4651 11.1071C14.1762 11.3958 14.0034 11.7805 13.9794 12.1882C13.9554 12.596 14.082 12.9983 14.3351 13.3188L14.4651 13.4638C14.7538 13.7527 15.1385 13.9255 15.5462 13.9495C15.9539 13.9734 16.3562 13.8469 16.6767 13.5938L16.8217 13.4638L19.7684 10.5171V10.5171Z" />
</svg>
