<svg xmlns="http://www.w3.org/2000/svg" xmlns:xlink="http://www.w3.org/1999/xlink" width="30" height="30" viewBox="0 0 30 30">
  <defs>
    <clipPath id="clip-defaultimage">
      <rect width="30" height="30"/>
    </clipPath>
  </defs>
  <g id="defaultimage" clip-path="url(#clip-defaultimage)">
    <g id="iconfinder_Line_ui_icons_Svg-09_1465834" transform="translate(0 1.26)">
      <g id="Group_24" data-name="Group 24" transform="translate(2)">
        <g id="Group_23" data-name="Group 23">
          <path id="Path_202" data-name="Path 202" d="M24.328,11.45V12.6a1.687,1.687,0,0,1,1.718,1.718V24.618a1.718,1.718,0,0,1-3.435,0V2.863A2.835,2.835,0,0,0,19.748,0H4.863A2.835,2.835,0,0,0,2,2.863V24.618a2.835,2.835,0,0,0,2.863,2.863H24.328a2.835,2.835,0,0,0,2.863-2.863V14.313A2.835,2.835,0,0,0,24.328,11.45ZM3.145,24.618V2.863A1.687,1.687,0,0,1,4.863,1.145H19.748a1.687,1.687,0,0,1,1.718,1.718V24.618a2.944,2.944,0,0,0,.573,1.718H4.863A1.687,1.687,0,0,1,3.145,24.618Z" transform="translate(-2)"/>
          <rect id="Rectangle_11" data-name="Rectangle 11" width="1" height="7" transform="translate(6 16.74)"/>
          <rect id="Rectangle_12" data-name="Rectangle 12" width="1" height="12" transform="translate(9 11.74)"/>
          <rect id="Rectangle_13" data-name="Rectangle 13" width="1" height="7" transform="translate(12 16.74)"/>
          <rect id="Rectangle_14" data-name="Rectangle 14" width="1" height="12" transform="translate(15 11.74)"/>
        </g>
        <path id="Path_203" data-name="Path 203" d="M26.58,12.58V8H22Z" transform="translate(-10.55 -3.42)" fill="#b2b2b2"/>
      </g>
    </g>
  </g>
</svg>
