<svg width="10" height="9" viewBox="0 0 10 9" fill="none" xmlns="http://www.w3.org/2000/svg">
<path d="M9.63441 3.98627C9.86296 4.22621 9.85373 4.60599 9.6138 4.83454L5.41342 8.83561C5.18169 9.05635 4.81749 9.05635 4.58576 8.83561L0.385388 4.83454C0.14545 4.60599 0.136221 4.2262 0.364774 3.98627C0.593327 3.74633 0.973114 3.7371 1.21305 3.96565L4.99959 7.57252L8.78613 3.96565C9.02607 3.7371 9.40586 3.74633 9.63441 3.98627ZM9.63441 0.786267C9.86296 1.02621 9.85373 1.40599 9.6138 1.63454L5.41342 5.63561C5.18169 5.85635 4.81749 5.85635 4.58576 5.63561L0.385388 1.63454C0.14545 1.40599 0.136221 1.0262 0.364774 0.786267C0.593327 0.546329 0.973114 0.5371 1.21305 0.765653L4.99959 4.37253L8.78613 0.765653C9.02607 0.5371 9.40586 0.54633 9.63441 0.786267Z" fill="#2E5CF6"/>
</svg>
